<svg width="256" height="256" viewBox="0 0 256 256" fill="none" xmlns="http://www.w3.org/2000/svg">
<rect width="256" height="256" fill="white"/>
<path fill-rule="evenodd" clip-rule="evenodd" d="M64 46.638C64 44.0765 66.0667 42 68.6162 42L120.318 42C122.867 42 124.934 44.0765 124.934 46.638C124.934 49.1995 122.867 51.276 120.318 51.276L68.6162 51.276C66.0667 51.276 64 49.1995 64 46.638ZM96.0756 159.986C106.752 159.986 115.407 151.29 115.407 140.564C115.407 129.837 106.752 121.141 96.0756 121.141C85.3993 121.141 76.7445 129.837 76.7445 140.564C76.7445 151.29 85.3993 159.986 96.0756 159.986ZM66.8311 140.564C66.8311 156.791 79.9243 169.946 96.0756 169.946C112.227 169.946 125.32 156.791 125.32 140.564C125.32 124.336 112.227 111.181 96.0756 111.181C79.9243 111.181 66.8311 124.336 66.8311 140.564ZM163.338 159.986C174.014 159.986 182.669 151.29 182.669 140.564C182.669 129.837 174.014 121.141 163.338 121.141C152.662 121.141 144.007 129.837 144.007 140.564C144.007 151.29 152.662 159.986 163.338 159.986ZM134.093 140.564C134.093 156.791 147.187 169.946 163.338 169.946C179.489 169.946 192.582 156.791 192.582 140.564C192.582 124.336 179.489 111.181 163.338 111.181C147.187 111.181 134.094 124.336 134.093 140.564ZM130.218 175.834C127.669 175.834 125.602 177.91 125.602 180.472C125.602 183.033 127.669 185.109 130.218 185.109H138.695L138.695 198.326C138.695 207.535 146.125 215 155.29 215H165.154C179.767 215 191.613 199.18 191.613 184.498L191.613 180.472C191.613 177.91 189.547 175.834 186.997 175.834L130.218 175.834ZM147.927 198.326L147.927 185.109L182.371 185.109C182.05 194.385 174.465 205.724 165.154 205.724H155.29C151.224 205.724 147.927 202.412 147.927 198.326ZM136.219 42C133.669 42 131.603 44.0765 131.603 46.638C131.603 49.1995 133.669 51.276 136.219 51.276L187.92 51.276C190.47 51.276 192.536 49.1995 192.536 46.638C192.536 44.0765 190.47 42 187.92 42L136.219 42ZM65.2849 61.9788C67.0497 60.1303 69.9719 60.0692 71.8118 61.8424L85.3659 74.9056C90.4517 79.8072 98.5083 79.712 103.478 74.6915L116.121 61.9189C117.919 60.1027 120.842 60.0947 122.65 61.901C124.457 63.7073 124.465 66.6439 122.667 68.4601L110.024 81.2327C101.505 89.8392 87.6933 90.0025 78.9748 81.5997L65.4206 68.5365C63.5808 66.7633 63.52 63.8273 65.2849 61.9788ZM139.384 61.814C137.529 60.0575 134.607 60.145 132.859 62.0094C131.111 63.8738 131.198 66.8091 133.053 68.5656L147.197 81.9535C155.878 90.1703 169.474 90.0097 177.96 81.59L191.164 68.4899C192.978 66.69 192.996 63.7535 191.205 61.9309C189.413 60.1083 186.491 60.0899 184.677 61.8897L171.473 74.9899C166.523 79.9014 158.592 79.9951 153.528 75.2019L139.384 61.814ZM64 97.9669C64 95.4054 66.0667 93.3289 68.6162 93.3289L120.318 93.3289C122.867 93.3289 124.934 95.4054 124.934 97.9669C124.934 100.528 122.867 102.605 120.318 102.605L68.6162 102.605C66.0667 102.605 64 100.528 64 97.9669ZM136.219 93.3289C133.669 93.3289 131.603 95.4054 131.603 97.9669C131.603 100.528 133.669 102.605 136.219 102.605L187.92 102.605C190.47 102.605 192.536 100.528 192.536 97.9669C192.536 95.4054 190.47 93.3289 187.92 93.3289L136.219 93.3289Z" fill="#222222"/>
</svg>
